<!-- Generated by IcoMoon.io -->
<svg version="1.1" xmlns="http://www.w3.org/2000/svg" width="280" height="320" viewBox="0 0 280 320">
<title>clippy</title>
<path fill="#FFF" d="M220 280h-200v-180h200v60h20v-100c0-10.938-9.063-20-20-20h-60c0-22.188-17.813-40-40-40s-40 17.813-40 40h-60c-10.938 0-20 9.063-20 20v220c0 10.938 9.063 20 20 20h200c10.938 0 20-9.063 20-20v-40h-20v40zM60 60c9.063 0 9.063 0 20 0s20-9.063 20-20 9.063-20 20-20 20 9.063 20 20 10 20 20 20 10.313 0 20 0 20 9.063 20 20h-160c0-12.188 8.75-20 20-20zM40 220h40v-20h-40v20zM180 180v-40l-80 60 80 60v-40h100v-40h-100zM40 260h60v-20h-60v20zM140 120h-100v20h100v-20zM80 160h-40v20h40v-20z"></path>
</svg>
